<?xml version="1.0" encoding="UTF-8" standalone="no"?>
<!DOCTYPE svg PUBLIC "-//W3C//DTD SVG 1.1//EN"
 "http://www.w3.org/Graphics/SVG/1.1/DTD/svg11.dtd">
<!-- Generated by graphviz version 7.1.0 (20230121.1956)
 -->
<!-- Pages: 1 -->
<svg width="139pt" height="404pt"
 viewBox="0.00 0.00 139.14 404.00" xmlns="http://www.w3.org/2000/svg" xmlns:xlink="http://www.w3.org/1999/xlink">
<g id="graph0" class="graph" transform="scale(1 1) rotate(0) translate(4 400)">
<polygon fill="white" stroke="none" points="-4,4 -4,-400 135.14,-400 135.14,4 -4,4"/>
<!-- n_broadcaster -->
<g id="node1" class="node">
<title>n_broadcaster</title>
<ellipse fill="none" stroke="black" cx="71.35" cy="-378" rx="59.59" ry="18"/>
<text text-anchor="middle" x="71.35" y="-374.3" font-family="Times,serif" font-size="14.00">n_broadcaster</text>
</g>
<!-- n_%a -->
<g id="node2" class="node">
<title>n_%a</title>
<ellipse fill="none" stroke="black" cx="71.35" cy="-306" rx="31.4" ry="18"/>
<text text-anchor="middle" x="71.35" y="-302.3" font-family="Times,serif" font-size="14.00">n_%a</text>
</g>
<!-- n_broadcaster&#45;&gt;n_%a -->
<g id="edge1" class="edge">
<title>n_broadcaster&#45;&gt;n_%a</title>
<path fill="none" stroke="black" d="M71.35,-359.7C71.35,-352.41 71.35,-343.73 71.35,-335.54"/>
<polygon fill="black" stroke="black" points="74.85,-335.62 71.35,-325.62 67.85,-335.62 74.85,-335.62"/>
</g>
<!-- n_&amp;inv -->
<g id="node3" class="node">
<title>n_&amp;inv</title>
<ellipse fill="none" stroke="black" cx="38.35" cy="-234" rx="38.19" ry="18"/>
<text text-anchor="middle" x="38.35" y="-230.3" font-family="Times,serif" font-size="14.00">n_&amp;inv</text>
</g>
<!-- n_%a&#45;&gt;n_&amp;inv -->
<g id="edge2" class="edge">
<title>n_%a&#45;&gt;n_&amp;inv</title>
<path fill="none" stroke="black" d="M63.53,-288.41C59.84,-280.59 55.35,-271.06 51.18,-262.23"/>
<polygon fill="black" stroke="black" points="54.42,-260.88 46.99,-253.33 48.08,-263.86 54.42,-260.88"/>
</g>
<!-- n_&amp;con -->
<g id="node4" class="node">
<title>n_&amp;con</title>
<ellipse fill="none" stroke="black" cx="71.35" cy="-90" rx="39.79" ry="18"/>
<text text-anchor="middle" x="71.35" y="-86.3" font-family="Times,serif" font-size="14.00">n_&amp;con</text>
</g>
<!-- n_%a&#45;&gt;n_&amp;con -->
<g id="edge3" class="edge">
<title>n_%a&#45;&gt;n_&amp;con</title>
<path fill="none" stroke="black" d="M77.02,-288.04C80.17,-277.74 83.75,-264.27 85.35,-252 88.07,-231.06 83.12,-150.28 82.35,-144 81.34,-135.85 79.74,-127.1 78.07,-119.09"/>
<polygon fill="black" stroke="black" points="81.53,-118.55 75.95,-109.55 74.7,-120.07 81.53,-118.55"/>
</g>
<!-- n_%b -->
<g id="node5" class="node">
<title>n_%b</title>
<ellipse fill="none" stroke="black" cx="41.35" cy="-162" rx="31.7" ry="18"/>
<text text-anchor="middle" x="41.35" y="-158.3" font-family="Times,serif" font-size="14.00">n_%b</text>
</g>
<!-- n_&amp;inv&#45;&gt;n_%b -->
<g id="edge4" class="edge">
<title>n_&amp;inv&#45;&gt;n_%b</title>
<path fill="none" stroke="black" d="M39.09,-215.7C39.4,-208.41 39.77,-199.73 40.12,-191.54"/>
<polygon fill="black" stroke="black" points="43.62,-191.76 40.55,-181.62 36.62,-191.46 43.62,-191.76"/>
</g>
<!-- n_output -->
<g id="node6" class="node">
<title>n_output</title>
<ellipse fill="none" stroke="black" cx="71.35" cy="-18" rx="42.49" ry="18"/>
<text text-anchor="middle" x="71.35" y="-14.3" font-family="Times,serif" font-size="14.00">n_output</text>
</g>
<!-- n_&amp;con&#45;&gt;n_output -->
<g id="edge6" class="edge">
<title>n_&amp;con&#45;&gt;n_output</title>
<path fill="none" stroke="black" d="M71.35,-71.7C71.35,-64.41 71.35,-55.73 71.35,-47.54"/>
<polygon fill="black" stroke="black" points="74.85,-47.62 71.35,-37.62 67.85,-47.62 74.85,-47.62"/>
</g>
<!-- n_%b&#45;&gt;n_&amp;con -->
<g id="edge5" class="edge">
<title>n_%b&#45;&gt;n_&amp;con</title>
<path fill="none" stroke="black" d="M48.61,-144.05C51.93,-136.32 55.94,-126.96 59.66,-118.27"/>
<polygon fill="black" stroke="black" points="62.83,-119.75 63.56,-109.18 56.4,-116.99 62.83,-119.75"/>
</g>
</g>
</svg>
