<?xml version="1.0" encoding="UTF-8" standalone="no"?>
<!DOCTYPE svg PUBLIC "-//W3C//DTD SVG 1.1//EN"
 "http://www.w3.org/Graphics/SVG/1.1/DTD/svg11.dtd">
<!-- Generated by graphviz version 7.1.0 (20230121.1956)
 -->
<!-- Pages: 1 -->
<svg width="158pt" height="332pt"
 viewBox="0.00 0.00 157.99 332.00" xmlns="http://www.w3.org/2000/svg" xmlns:xlink="http://www.w3.org/1999/xlink">
<g id="graph0" class="graph" transform="scale(1 1) rotate(0) translate(4 328)">
<polygon fill="white" stroke="none" points="-4,4 -4,-328 153.99,-328 153.99,4 -4,4"/>
<!-- n_broadcaster -->
<g id="node1" class="node">
<title>n_broadcaster</title>
<ellipse fill="none" stroke="black" cx="90.2" cy="-306" rx="59.59" ry="18"/>
<text text-anchor="middle" x="90.2" y="-302.3" font-family="Times,serif" font-size="14.00">n_broadcaster</text>
</g>
<!-- n_%a -->
<g id="node2" class="node">
<title>n_%a</title>
<ellipse fill="none" stroke="black" cx="31.2" cy="-234" rx="31.4" ry="18"/>
<text text-anchor="middle" x="31.2" y="-230.3" font-family="Times,serif" font-size="14.00">n_%a</text>
</g>
<!-- n_broadcaster&#45;&gt;n_%a -->
<g id="edge1" class="edge">
<title>n_broadcaster&#45;&gt;n_%a</title>
<path fill="none" stroke="black" d="M75.91,-288.05C68.58,-279.35 59.5,-268.59 51.46,-259.03"/>
<polygon fill="black" stroke="black" points="54.24,-256.9 45.12,-251.51 48.88,-261.42 54.24,-256.9"/>
</g>
<!-- n_%b -->
<g id="node3" class="node">
<title>n_%b</title>
<ellipse fill="none" stroke="black" cx="79.2" cy="-162" rx="31.7" ry="18"/>
<text text-anchor="middle" x="79.2" y="-158.3" font-family="Times,serif" font-size="14.00">n_%b</text>
</g>
<!-- n_broadcaster&#45;&gt;n_%b -->
<g id="edge2" class="edge">
<title>n_broadcaster&#45;&gt;n_%b</title>
<path fill="none" stroke="black" d="M88.85,-287.59C86.99,-263.61 83.62,-220.14 81.4,-191.42"/>
<polygon fill="black" stroke="black" points="84.9,-191.32 80.64,-181.62 77.92,-191.86 84.9,-191.32"/>
</g>
<!-- n_%c -->
<g id="node4" class="node">
<title>n_%c</title>
<ellipse fill="none" stroke="black" cx="79.2" cy="-90" rx="31.4" ry="18"/>
<text text-anchor="middle" x="79.2" y="-86.3" font-family="Times,serif" font-size="14.00">n_%c</text>
</g>
<!-- n_broadcaster&#45;&gt;n_%c -->
<g id="edge3" class="edge">
<title>n_broadcaster&#45;&gt;n_%c</title>
<path fill="none" stroke="black" d="M98.86,-288.14C112.94,-258.37 137.57,-194.85 120.2,-144 116.46,-133.05 109.43,-122.61 102.25,-113.94"/>
<polygon fill="black" stroke="black" points="105.09,-111.87 95.83,-106.72 99.86,-116.52 105.09,-111.87"/>
</g>
<!-- n_%a&#45;&gt;n_%b -->
<g id="edge4" class="edge">
<title>n_%a&#45;&gt;n_%b</title>
<path fill="none" stroke="black" d="M42.33,-216.76C48.09,-208.37 55.24,-197.93 61.71,-188.5"/>
<polygon fill="black" stroke="black" points="64.5,-190.62 67.27,-180.4 58.73,-186.66 64.5,-190.62"/>
</g>
<!-- n_%b&#45;&gt;n_%c -->
<g id="edge5" class="edge">
<title>n_%b&#45;&gt;n_%c</title>
<path fill="none" stroke="black" d="M79.2,-143.7C79.2,-136.41 79.2,-127.73 79.2,-119.54"/>
<polygon fill="black" stroke="black" points="82.7,-119.62 79.2,-109.62 75.7,-119.62 82.7,-119.62"/>
</g>
<!-- n_&amp;inv -->
<g id="node5" class="node">
<title>n_&amp;inv</title>
<ellipse fill="none" stroke="black" cx="49.2" cy="-18" rx="38.19" ry="18"/>
<text text-anchor="middle" x="49.2" y="-14.3" font-family="Times,serif" font-size="14.00">n_&amp;inv</text>
</g>
<!-- n_%c&#45;&gt;n_&amp;inv -->
<g id="edge6" class="edge">
<title>n_%c&#45;&gt;n_&amp;inv</title>
<path fill="none" stroke="black" d="M71.94,-72.05C68.62,-64.32 64.61,-54.96 60.88,-46.27"/>
<polygon fill="black" stroke="black" points="64.14,-44.99 56.99,-37.18 57.71,-47.75 64.14,-44.99"/>
</g>
<!-- n_&amp;inv&#45;&gt;n_%a -->
<g id="edge7" class="edge">
<title>n_&amp;inv&#45;&gt;n_%a</title>
<path fill="none" stroke="black" d="M45.36,-36.09C43.19,-46.43 40.63,-59.91 39.2,-72 33.73,-118.08 31.99,-172.01 31.44,-204.29"/>
<polygon fill="black" stroke="black" points="27.95,-203.98 31.31,-214.03 34.94,-204.08 27.95,-203.98"/>
</g>
</g>
</svg>
